<?xml version="1.0" encoding="utf-8"?>
<!-- Generator: Adobe Illustrator 25.0.0, SVG Export Plug-In . SVG Version: 6.00 Build 0)  -->
<svg version="1.1" id="Layer_1" xmlns="http://www.w3.org/2000/svg" xmlns:xlink="http://www.w3.org/1999/xlink" x="0px" y="0px"
	 viewBox="0 0 4000 4000" style="enable-background:new 0 0 4000 4000;" xml:space="preserve">
<style type="text/css">
	.st0{fill:#FFFFFF;}
	.st1{fill:#371A45;}
	.st2{opacity:0.35;}
	.st3{opacity:0.7;}
	.st4{fill:#111A28;}
	.st5{fill:#F92323;}
	.st6{opacity:0.5;}
	.st7{fill:#C5D3E2;}
	.st8{opacity:0.6;}
	.st9{fill:#3AAAFF;}
	.st10{fill:#DB2C2C;}
	.st11{fill:#22A7F0;}
	.st12{opacity:0.15;}
	.st13{opacity:0.2;}
	.st14{fill:#102770;}
	.st15{opacity:0.3;}
	.st16{fill:#FFF2BD;}
</style>
<g>
	<g>
		<rect class="st0" width="4000" height="4000"/>
	</g>
	<g>
		<g>
			<path class="st1" d="M2653.09,3129.17c383.11-231.91,640.42-661.53,640.42-1153.27C3293.52,1238.1,2714.39,640,2000,640
				S706.48,1238.1,706.48,1975.9c0,491.75,257.31,921.36,640.43,1153.27c197.48-3.67,419.02-5.73,653.09-5.73
				S2455.62,3125.5,2653.09,3129.17z"/>
		</g>
		<g>
			<path class="st0" d="M2792.4,2778.02c-28.22-74.57-68.46-145.61-119.65-211.27v-83.26c0-41.63-17.14-81.25-48.5-112.64l1.04-8.81
				c3.91-33.07-6.33-65.23-28.84-90.56c-23.69-26.65-58.23-41.93-94.79-41.93h-3.63c3.07-3.93,6.08-7.89,9.04-11.88
				c3.75-4.22,6.84-7.99,9.43-11.5c38.65-52.5,67.82-110.05,86.81-171.24c37.16-5.34,71.04-23.25,96.58-51.31
				c29.15-32.03,44.08-73.5,42.05-116.76l-5.62-119.34c-2.04-43.27-20.8-83.15-52.84-112.29c-28.42-25.86-64.8-40.69-103.05-42.11
				c-29.59-69-71.13-131.81-123.62-186.87c-116.4-122.11-273.38-191.57-442.02-195.61c-5.29-0.13-10.67-0.2-15.95-0.2
				c-162.46,0-316.92,61.95-434.93,174.44c-76.71,73.12-133.82,164.12-165.76,263.89c-38.03,4.93-72.73,22.97-98.84,51.65
				c-29.15,32.03-44.08,73.5-42.05,116.76l5.62,119.34c4,84.82,72.22,151.66,156.43,154.43c21.34,49.58,48.84,96.02,82.04,138.61
				h-3.01c-36.56,0-71.11,15.28-94.79,41.93c-21.42,24.1-31.73,54.38-29.31,85.75c-11.89,9.6-22.39,20.46-31.31,32.39
				c-21.01,27.93-32.13,60.41-32.13,93.87v106.31c-43.02,59.18-77.43,122.47-102.31,188.22c-39.01,103.06-40.74,183.99-5.15,240.55
				h-11.92c49.03,40.6,100.98,77.61,155.48,110.6c197.48-3.67,419.02-5.73,653.09-5.73s455.62,2.06,653.1,5.73
				c54.5-32.99,106.45-70,155.48-110.6h-11.02C2833.14,2962.01,2831.41,2881.09,2792.4,2778.02z"/>
		</g>
		<g>
			<path class="st0" d="M2782.62,1235.43c0.56,71.91,27.42,140.92,75.62,194.31c2.6,2.89,2.95,7.04,0.89,10.58l-42.55,72.87
				c-11.45,19.61-8.23,44.52,7.82,60.57c9.44,9.44,22,14.64,35.36,14.64c8.84,0,17.55-2.36,25.2-6.82l109.53-63.95
				c1.21-0.71,2.55-1.08,3.87-1.08c0.59,0,1.17,0.08,1.72,0.22c23.94,6.43,48.72,9.79,73.65,10.01l2.45,0.01
				c46.98,0,91.52-11.32,131.09-31.26c-69.77-186.9-179-353.53-317.22-488.95C2823.98,1061.13,2781.91,1143.77,2782.62,1235.43z"/>
		</g>
		<g>
			<g>
				<path class="st0" d="M2638.2,2483.49v432.35c0,20.14-5.19,39.33-14.56,56.59c-25.61,47.49-82.36,80.69-147.86,80.69h-968.01
					c-55.07,0-103.95-23.44-133.35-59.14c-18.3-22.21-29.07-49.14-29.07-78.14v-432.35c0-26.83,9.26-51.92,25.22-73.14
					c28.79-38.48,79.62-64.14,137.2-64.14h968.01c7.81,0,15.46,0.47,22.99,1.42C2577.33,2357.1,2638.2,2414.59,2638.2,2483.49z"/>
				<path class="st1" d="M2475.78,3067.67h-968.01c-57.3,0-111.35-24.09-144.58-64.44c-21.19-25.71-32.39-55.93-32.39-87.39v-432.35
					c0-29.09,9.73-57.4,28.14-81.88c32.75-43.78,88.4-69.94,148.83-69.94h968.01c8.34,0,16.69,0.51,24.79,1.53
					c86.73,10.46,152.18,75.08,152.18,150.3v432.35c0,22.21-5.49,43.58-16.33,63.54C2607.51,3033,2544.44,3067.67,2475.78,3067.67z
					 M1507.77,2360.76c-51.31,0-98.24,21.8-125.55,58.31c-14.61,19.43-22.32,41.7-22.32,64.43v432.35c0,24.62,8.9,48.45,25.75,68.89
					c27.77,33.72,73.43,53.85,122.13,53.85h968.01c58.11,0,111.13-28.67,135.06-73.05c8.51-15.68,12.82-32.38,12.82-49.69v-432.35
					c0-60.51-54.44-112.71-126.63-121.42c-6.98-0.87-14.1-1.31-21.25-1.31H1507.77z"/>
			</g>
			<g>
				<path class="st0" d="M2004.1,2226.02c330.73,54.68,639.2,255.6,756,564.23c94.39,249.43-77.05,262.87-77.05,262.87h-685.74h6.29
					h-685.74c0,0-171.44-13.44-77.05-262.87c116.8-308.63,425.26-509.54,756-564.23"/>
			</g>
			<g class="st2">
				<path class="st1" d="M2683.02,3053.13H1317.84c0,0-119.94-9.42-103.9-158.45c0.23,1.8,0.48,3.57,0.75,5.31
					c11.54,72.96,110.87,87.23,144.03,21.23l15-29.85h1252.43l16.07,31.43c33.51,65.53,131.8,50.92,143.8-21.69
					c0.35-2.1,0.66-4.24,0.93-6.42C2803,3043.71,2683.02,3053.13,2683.02,3053.13z"/>
			</g>
			<g>
				<path class="st0" d="M1261.98,2903.77c0,0,65.31-196.93,241.18-197.49c162.28-0.52,224.24,80.43,186.22,191.58
					c-18.92,55.32-221.06,107.61-315.66-6.5"/>
			</g>
			<g class="st2">
				<path class="st1" d="M1689.4,2897.87c-18.95,55.31-221.08,107.57-315.67-6.51l0,0c0-19.98,22.14-31.68,38.88-20.77
					c102.29,66.68,260.15,20.46,276.79-28.1c3.64-10.58,6.33-20.91,8.15-30.91C1702.93,2837.1,1700.2,2866.27,1689.4,2897.87z"/>
			</g>
			<g>
				<path class="st1" d="M1257.38,2902.24c0.35-23.13,8.25-43.9,18.5-63.29c10.06-19.55,23.21-37.47,37.88-54.01
					c14.82-16.4,30.58-32.17,48.56-45.52c17.92-13.36,37.68-24.56,58.76-32.63c21.05-8.13,43.41-12.94,65.84-14.45l16.82-0.61
					c5.45,0.09,10.89,0.09,16.34,0.26c10.91,0.43,21.84,1.08,32.78,2.39c21.85,2.51,43.78,6.9,65.04,14.77
					c21.2,7.73,41.88,19.26,58.93,35.82c17.15,16.4,29.47,38.51,34.5,61.72c5.15,23.24,4.08,46.99-0.77,69.09
					c-1.07,5.59-2.66,10.99-4.12,16.44l-2.54,8.02l-0.64,2c-0.22,0.68-0.69,1.7-1.03,2.53l-2.35,5.2
					c-7.31,12.58-17.08,20.52-26.82,27.26c-19.74,13.2-40.95,20.96-62.46,26.83c-43.09,11.04-88.33,13.12-132.31,3.9
					c-5.49-1.17-10.96-2.44-16.35-4.08c-5.45-1.4-10.75-3.38-16.09-5.22c-5.34-1.83-10.54-4.14-15.87-6.12
					c-5.13-2.45-10.5-4.49-15.47-7.35c-5-2.79-10.01-5.61-14.48-9.26c-4.69-3.32-8.92-7.25-12.91-11.39
					c-7.93-8.3-14.16-18.4-17.1-30.09c-0.72-2.87,1.02-5.78,3.89-6.5c1.04-0.26,2.09-0.2,3.03,0.12l0.54,0.19
					c5.69,1.93,10.12,4.64,14.75,7.01c4.7,2.29,8.65,5.17,12.99,7.55c2.1,1.26,4.12,2.61,6.11,3.98c2.06,1.28,4.21,2.43,6.21,3.76
					c2.09,1.21,3.99,2.69,6.11,3.86c2.1,1.19,4.15,2.46,6.19,3.76c16.22,10.73,35.19,17.15,54.49,21.31
					c38.78,8.2,80.2,6.36,118.84-3.58c19.17-5.17,38.12-12.37,53.55-22.78c7.62-5.09,14.29-11.32,17.62-17.12
					c0.26-0.7,0.55-1.37,0.87-2.04c0.16-0.39,0.32-0.54,0.51-1.12l0.56-1.77l2.24-7.08c1.25-4.75,2.68-9.49,3.58-14.29
					c4.22-19.09,4.85-38.57,0.85-56.63c-3.97-18.07-13.07-34.47-26.46-47.33c-13.31-12.93-30.25-22.63-48.67-29.33
					c-18.4-6.83-38.18-10.85-58.27-13.16c-10.04-1.21-20.22-1.81-30.41-2.21l-15.34-0.24l-14.85,0.54
					c-19.72,1.33-39.14,5.52-57.5,12.61c-36.73,14.15-69.49,38.98-94.73,70.38c-6.25,7.9-12.24,16.01-17.88,24.4
					c-5.76,8.3-11.31,16.76-16.79,25.32c-10.82,17.2-21.53,34.57-35.45,51.21l-0.24,0.28c-1.8,2.15-5,2.44-7.15,0.64
					C1257.99,2905.2,1257.37,2903.71,1257.38,2902.24z"/>
			</g>
			<g>
				<path class="st0" d="M2737.9,2903.77c0,0-65.31-196.93-241.18-197.49c-162.28-0.52-224.24,80.43-186.22,191.58
					c18.92,55.32,221.06,107.61,315.66-6.5"/>
			</g>
			<g>
				<path class="st0" d="M2737.9,2903.77c0,0-65.31-196.93-241.18-197.49c-162.28-0.52-224.24,80.43-186.22,191.58
					c18.92,55.32,221.06,107.61,315.66-6.5L2737.9,2903.77z"/>
			</g>
			<g class="st2">
				<path class="st1" d="M2626.15,2891.36c-94.59,114.08-296.72,61.82-315.67,6.51c-10.8-31.6-13.53-60.77-8.15-86.3
					c1.82,10,4.51,20.33,8.15,30.91c16.64,48.57,174.5,94.78,276.79,28.1C2604,2859.68,2626.15,2871.39,2626.15,2891.36
					L2626.15,2891.36z"/>
			</g>
			<g>
				<path class="st1" d="M2733.3,2905.3c-13.92-16.64-24.63-34.01-35.45-51.21c-5.48-8.56-11.03-17.02-16.79-25.32
					c-5.64-8.39-11.63-16.5-17.88-24.4c-25.24-31.4-58-56.23-94.73-70.38c-18.36-7.1-37.78-11.28-57.5-12.61l-14.85-0.54
					l-15.34,0.24c-10.19,0.41-20.37,1-30.41,2.21c-20.09,2.3-39.88,6.33-58.27,13.16c-18.42,6.69-35.36,16.4-48.67,29.33
					c-13.39,12.86-22.49,29.25-26.46,47.33c-4,18.07-3.37,37.55,0.85,56.63c0.9,4.79,2.32,9.53,3.58,14.29l2.24,7.08l0.56,1.77
					c0.19,0.58,0.35,0.73,0.51,1.12c0.32,0.67,0.61,1.34,0.87,2.04c3.33,5.8,10,12.03,17.62,17.12
					c15.43,10.41,34.38,17.61,53.55,22.78c38.65,9.94,80.06,11.78,118.84,3.58c19.31-4.16,38.28-10.58,54.49-21.31
					c2.04-1.3,4.09-2.58,6.19-3.76c2.12-1.17,4.02-2.65,6.11-3.86c2-1.34,4.15-2.49,6.21-3.76c1.99-1.37,4.01-2.72,6.11-3.98
					c4.34-2.39,8.29-5.27,12.99-7.55c4.63-2.37,9.06-5.08,14.75-7.01l0.55-0.19c2.8-0.95,5.84,0.55,6.79,3.35
					c0.35,1.02,0.37,2.06,0.12,3.03c-2.94,11.69-9.17,21.79-17.1,30.09c-3.99,4.14-8.22,8.07-12.91,11.39
					c-4.47,3.65-9.48,6.47-14.48,9.26c-4.97,2.86-10.33,4.9-15.47,7.35c-5.33,1.98-10.53,4.29-15.87,6.12
					c-5.34,1.84-10.64,3.81-16.09,5.22c-5.4,1.65-10.86,2.91-16.35,4.08c-43.98,9.22-89.23,7.13-132.31-3.9
					c-21.51-5.87-42.72-13.63-62.46-26.83c-9.74-6.74-19.51-14.68-26.82-27.26l-2.35-5.2c-0.35-0.83-0.81-1.85-1.03-2.53l-0.64-2
					l-2.54-8.02c-1.46-5.45-3.06-10.84-4.12-16.44c-4.85-22.1-5.92-45.85-0.77-69.09c5.03-23.22,17.34-45.32,34.5-61.72
					c17.05-16.56,37.73-28.09,58.93-35.82c21.26-7.87,43.19-12.25,65.04-14.77c10.93-1.31,21.86-1.96,32.78-2.39
					c5.45-0.17,10.9-0.17,16.34-0.26l16.81,0.61c22.44,1.51,44.79,6.32,65.84,14.45c21.08,8.07,40.84,19.27,58.76,32.63
					c17.98,13.35,33.74,29.13,48.56,45.52c14.67,16.53,27.82,34.46,37.87,54.01c10.25,19.39,18.16,40.16,18.5,63.29
					c0.04,2.8-2.2,5.11-5,5.15c-1.58,0.02-3.01-0.68-3.95-1.8L2733.3,2905.3z"/>
			</g>
			<g>
				<path class="st1" d="M2683.61,3067.67l-1366.89-0.04c-2.52-0.2-62.03-5.45-96.18-59.27c-32.35-50.98-30.11-126.09,6.66-223.25
					c111.2-293.85,405.19-513.57,767.23-573.44c2.07-0.34,4.11-0.23,6.02,0.27c1.91-0.5,3.95-0.61,6.02-0.27
					c362.04,59.86,656.03,279.59,767.23,573.44c36.77,97.15,39.01,172.27,6.66,223.25c-34.15,53.82-93.66,59.07-96.18,59.27
					L2683.61,3067.67z M2003.59,3038.58h678.77c5.2-0.55,48.58-6.28,73.65-46.15c26.56-42.25,23.27-110.38-9.52-197.03
					c-107.54-284.17-392.92-496.85-744.77-555.02c-0.43-0.07-0.86-0.16-1.27-0.27c-0.41,0.1-0.84,0.2-1.27,0.27
					c-351.84,58.17-637.22,270.85-744.76,555.02c-32.79,86.65-36.08,154.78-9.52,197.03c25,39.77,68.23,45.57,73.66,46.15H2003.59z"
					/>
			</g>
			<g>
				<g>
					<path class="st0" d="M2585.97,2001.94L2585.97,2001.94c-6.71,0.32-12.41-4.87-12.72-11.58l-16.48-349.95
						c-0.32-6.71,4.87-12.41,11.58-12.72h0c70.39-3.32,130.15,51.06,133.46,121.46l5.62,119.34
						C2710.74,1938.87,2656.36,1998.63,2585.97,2001.94z"/>
					<path class="st1" d="M2585.39,2004.57c-7.83,0-14.38-6.18-14.75-14.08l-16.48-349.95c-0.38-8.14,5.93-15.07,14.06-15.45
						c71.76-3.39,132.82,52.22,136.2,123.95l5.62,119.33c1.64,34.74-10.35,68.04-33.76,93.77c-23.41,25.72-55.43,40.79-90.18,42.43
						l0,0C2585.86,2004.56,2585.62,2004.57,2585.39,2004.57z M2574.41,1630.16c-1.97,0-3.96,0.05-5.95,0.14
						c-5.26,0.25-9.34,4.73-9.09,9.99l16.48,349.95c0.25,5.26,4.73,9.3,9.99,9.09l0,0c68.84-3.24,122.21-61.89,118.97-130.73
						l-5.62-119.33C2696.05,1682.42,2640.65,1630.16,2574.41,1630.16z"/>
				</g>
				<g class="st2">
					<path class="st1" d="M2704.79,1812.52l2.65,55.97c3.3,70.37-51.07,130.13-121.47,133.48c-6.71,0.32-12.4-4.9-12.72-11.6
						l-4.41-93.03c2.08,4.15,6.47,6.88,11.39,6.69l8.3-0.41C2644.15,1901,2689.8,1863.11,2704.79,1812.52z"/>
				</g>
				<g>
					<path class="st1" d="M2585.38,2016.5c-14.16,0-26-11.17-26.67-25.46l-16.48-349.95c-0.69-14.71,10.71-27.24,25.42-27.94
						c78.24-3.69,144.99,57.01,148.68,135.31l5.62,119.33c3.69,78.29-57.01,144.99-135.3,148.68h0
						C2586.23,2016.49,2585.8,2016.5,2585.38,2016.5z M2571.41,1642.13l16.25,345.14c61.12-4.15,108.13-56.64,105.23-118.11
						l-5.62-119.33C2684.38,1688.36,2632.55,1640.48,2571.41,1642.13z"/>
				</g>
				<g>
					<path class="st0" d="M1413.23,1682.09L1413.23,1682.09c6.71-0.32,12.41,4.87,12.72,11.58l16.48,349.95
						c0.32,6.71-4.87,12.41-11.58,12.72l0,0c-70.39,3.32-130.15-51.06-133.46-121.46l-5.62-119.34
						C1288.46,1745.16,1342.84,1685.41,1413.23,1682.09z"/>
					<path class="st1" d="M1424.79,2059.1c-69.02,0-126.72-54.44-130-124.09l-5.62-119.33c-1.64-34.74,10.35-68.04,33.76-93.77
						c23.41-25.72,55.43-40.79,90.18-42.43l0,0c8.17-0.39,15.07,5.93,15.45,14.06l16.48,349.96c0.38,8.14-5.93,15.07-14.06,15.45
						C1428.91,2059.05,1426.84,2059.1,1424.79,2059.1z M1413.35,1684.7c-68.84,3.24-122.21,61.89-118.97,130.73l5.62,119.33
						c3.24,68.84,61.86,122.16,130.73,118.97c5.26-0.25,9.34-4.73,9.09-9.99l-16.48-349.95
						C1423.09,1688.53,1418.51,1684.4,1413.35,1684.7L1413.35,1684.7z"/>
				</g>
				<g class="st2">
					<path class="st1" d="M1437.89,1946.54l4.56,97.08c0.32,6.71-4.9,12.4-11.6,12.73c-36.95,1.72-71-12.42-95.47-36.47
						c-22.1-21.72-36.39-51.54-37.97-84.96l-2.37-50.28c22.06,43.18,68.03,71.81,119.64,69.39l12.77-0.6
						C1432.11,1953.18,1435.95,1950.42,1437.89,1946.54z"/>
				</g>
				<g>
					<path class="st1" d="M1424.78,2071.03c-75.34,0-138.33-59.43-141.92-135.46l-5.62-119.33
						c-3.69-78.29,57.01-144.99,135.3-148.68h0c14.72-0.64,27.24,10.71,27.93,25.42l16.48,349.96
						c0.69,14.71-10.71,27.24-25.42,27.94C1429.29,2070.98,1427.02,2071.03,1424.78,2071.03z M1411.54,1696.76
						c-61.12,4.15-108.13,56.64-105.23,118.11l5.62,119.33c2.89,61.47,54.66,109.3,115.86,107.7L1411.54,1696.76z"/>
				</g>
				<g>
					<circle class="st0" cx="1999.67" cy="1842.01" r="597.01"/>
					<path class="st1" d="M1999.88,2441.64c-4.86,0-9.67-0.06-14.55-0.18c-330.54-7.91-593.01-283.26-585.1-613.8
						c3.83-160.12,69.79-309.16,185.72-419.67c115.93-110.51,267.95-169.21,428.08-165.43c160.12,3.83,309.16,69.79,419.68,185.72
						c110.51,115.93,169.26,267.96,165.43,428.08l0,0C2591.33,2182.02,2323.88,2441.64,1999.88,2441.64z M1999.3,1247.61
						c-153.36,0-298.35,57.97-409.75,164.16c-114.92,109.55-180.3,257.29-184.1,416.02c-7.84,327.65,252.35,600.61,580.01,608.45
						c327.57,7.85,600.6-252.35,608.45-580l2.61,0.06l-2.61-0.06c3.8-158.72-54.44-309.43-163.99-424.35
						c-109.55-114.92-257.29-180.3-416.02-184.1C2009.03,1247.67,2004.15,1247.61,1999.3,1247.61z"/>
				</g>
				<g class="st2">
					<path class="st1" d="M2592.77,1773.54c3.15,27.08,4.42,54.7,3.75,82.76c-7.93,329.61-281.53,590.43-611.14,582.57
						c-329.61-7.93-590.43-281.53-582.57-611.14c0.22-9.48,0.67-18.96,1.35-28.29c33.28,291.5,277.22,521.15,578.81,528.38
						C2303.11,2335.45,2570.35,2089.67,2592.77,1773.54z"/>
				</g>
				<g>
					<path class="st1" d="M1999.88,2453.57c-4.96,0-9.86-0.06-14.84-0.18c-337.11-8.07-604.81-288.9-596.75-626.01
						c8.07-337.11,288.7-604.78,626.01-596.75c163.31,3.91,315.31,71.18,428.03,189.42c112.71,118.24,172.63,273.29,168.72,436.6
						l0,0C2603.1,2188.78,2330.33,2453.57,1999.88,2453.57z M1999.31,1259.55c-150.28,0-292.36,56.81-401.53,160.87
						c-112.61,107.35-176.68,252.13-180.4,407.66c-7.68,321.08,247.28,588.55,568.36,596.23c321,7.71,588.54-247.28,596.23-568.36
						c7.69-321.08-247.28-588.55-568.36-596.23C2008.84,1259.6,2004.06,1259.55,1999.31,1259.55z M2596.51,1856.3h0.05H2596.51z"/>
				</g>
				<g>
					<path class="st1" d="M2594.24,1871.58c-1.03,116.82-39.91,224.94-105.56,314.11c-49.22,66.85-250.13,182.82-496.96,182.86
						c-228.87,0.04-436.01-123.81-484.03-191.52c-64.06-90.31-101.03-199.1-100-315.92c2.73-309.14,269.46-434.96,597.13-432.07
						C2332.49,1431.94,2596.96,1562.44,2594.24,1871.58z"/>
				</g>
				<g>
					<path class="st1" d="M1991.62,2383.1c-236.77,0-445.47-126.7-495.8-197.65c-68.2-96.13-103.7-208.33-102.68-324.47
						c1.34-151.3,63.03-267.42,183.37-345.14c105.06-67.85,253.22-102.98,428.44-101.35c175.23,1.55,322.74,39.2,426.58,108.89
						c118.95,79.82,178.59,197.02,177.25,348.32l0,0c-1.03,116.13-38.51,227.69-108.39,322.6
						c-48.45,65.81-247.4,188.74-508.67,188.79C1991.69,2383.1,1991.65,2383.1,1991.62,2383.1z M1993.83,1443.54
						c-164.76,0-303.42,33.38-401.54,96.74c-111.6,72.07-168.82,180.05-170.06,320.95c-0.97,109.98,32.68,216.27,97.32,307.38
						c45.9,64.7,248.49,185.39,472.08,185.39c0.04,0,0.05,0,0.09,0c247.82-0.04,441.26-117.19,485.25-176.95
						c66.23-89.96,101.75-195.63,102.72-305.61c3.37-381.56-400.99-426.32-575-427.86
						C2001.06,1443.56,1997.43,1443.54,1993.83,1443.54z M2594.24,1871.58h0.05H2594.24z"/>
				</g>
				<g class="st3">
					
						<ellipse transform="matrix(0.187 -0.9824 0.9824 0.187 157.0759 3845.5564)" class="st0" cx="2401.79" cy="1827.88" rx="105.65" ry="76.56"/>
				</g>
				<g class="st3">
					
						<ellipse transform="matrix(0.3209 -0.9471 0.9471 0.3209 -362.5441 3567.0332)" class="st0" cx="2306.16" cy="2036.33" rx="48.49" ry="41.61"/>
				</g>
				<g class="st2">
					<path class="st4" d="M2481.39,1582.16c71.92,69.85,113.92,165.24,112.84,289.4c-1.03,116.85-39.93,224.96-105.53,314.13
						c-49.23,66.85-250.16,182.82-496.99,182.88c-87.15,0.04-171.13-17.92-244.41-43.93c303.41-6.55,548.16-148.91,609.19-231.81
						c83.32-113.16,132.66-250.41,133.95-398.65C2490.82,1654.56,2487.65,1617.25,2481.39,1582.16z"/>
				</g>
				<g>
					<path class="st1" d="M2545.55,1614.57c-3.23,0-6.49-1.08-9.19-3.31l-1.53-1.26l-1.22-1.69
						c-99.45-142.07-293.24-224.76-531.7-226.87c-239.59-2.23-434.85,79.78-535.17,224.66l-0.73,0.97
						c-5.1,6.21-14.31,7.13-20.51,2.02c-6.02-4.96-7.07-13.71-2.44-19.89c105.96-152.72,309.9-239.09,559.11-236.84
						c247.81,2.19,450.11,89.3,555.07,238.98c3.88,5.25,3.89,12.66-0.44,17.92C2553.91,1612.75,2549.74,1614.57,2545.55,1614.57z"/>
				</g>
				<g class="st3">
					<path class="st0" d="M1539.3,2046.2c0,0-93.06-305.82,72.37-425.9c165.43-120.08,401.89-117.5,396.23-102.39
						c0,0-262.34,61.07-366.6,267.12C1560.91,1943.92,1539.3,2046.2,1539.3,2046.2z"/>
				</g>
			</g>
			<g>
				<path class="st1" d="M830.37,3166.13c48.73-7.71,97.47-9.56,146.2-10.51c24.37-0.52,48.74-0.63,73.1-0.49
					c24.37-0.04,48.73,0.31,73.1,0.57c48.73,0.45,97.47,0.57,146.2,0.5h146.2H2000h584.81h292.41l73.1-0.03l36.55-0.36l36.55-0.62
					c48.73-0.17,97.47,0.27,146.2,10.94c2.74,0.6,4.48,3.31,3.88,6.05c-0.44,2-2,3.47-3.88,3.88
					c-48.73,10.67-97.47,11.11-146.2,10.94l-36.55-0.62l-36.55-0.36l-73.1-0.03h-292.41H2000h-584.81h-146.2
					c-48.73-0.07-97.47,0.04-146.2,0.5c-24.37,0.25-48.73,0.61-73.1,0.57c-24.37,0.13-48.73,0.03-73.1-0.49
					c-48.73-0.95-97.47-2.8-146.2-10.51c-2.74-0.43-4.62-3.01-4.18-5.75C826.54,3168.11,828.28,3166.47,830.37,3166.13z"/>
			</g>
			<g>
				<path class="st5" d="M2942.04,3165.25H1057.95c-30.47,0-55.17-24.7-55.17-55.17v-1.79c0-30.47,24.7-55.17,55.17-55.17h1884.09
					c30.47,0,55.17,24.7,55.17,55.17v1.79C2997.21,3140.55,2972.51,3165.25,2942.04,3165.25z"/>
				<path class="st1" d="M2942.04,3167.35H1057.95c-31.57,0-57.26-25.69-57.26-57.27v-1.8c0-31.57,25.69-57.26,57.26-57.26h1884.09
					c31.57,0,57.26,25.69,57.26,57.26v1.8C2999.31,3141.66,2973.62,3167.35,2942.04,3167.35z M1057.95,3055.22
					c-29.26,0-53.07,23.8-53.07,53.06v1.8c0,29.26,23.81,53.07,53.07,53.07h1884.09c29.26,0,53.07-23.8,53.07-53.07v-1.8
					c0-29.26-23.81-53.06-53.07-53.06H1057.95z"/>
			</g>
			<g>
				<path class="st1" d="M2942.04,3179.79H1057.95c-38.44,0-69.71-31.27-69.71-69.71v-1.8c0-38.44,31.27-69.71,69.71-69.71h1884.09
					c38.44,0,69.71,31.27,69.71,69.71v1.8C3011.76,3148.52,2980.48,3179.79,2942.04,3179.79z M1057.95,3067.67
					c-22.4,0-40.62,18.22-40.62,40.62v1.8c0,22.4,18.22,40.62,40.62,40.62h1884.09c22.4,0,40.62-18.22,40.62-40.62v-1.8
					c0-22.39-18.22-40.62-40.62-40.62H1057.95z"/>
			</g>
			<g class="st6">
				<path class="st0" d="M2942.93,3069.73H1368.27h-131.84h-179.36c-21.06,0-38.2,17.7-38.2,39.45c0,15.94,9.22,29.68,22.43,35.89
					c-4-6.24-6.35-13.7-6.35-21.73c0-21.75,17.14-39.45,38.2-39.45h161.55c8.36,9.58,35.45,16.61,67.65,16.61
					c32.2,0,59.29-7.03,67.65-16.61h1589.01c5.63,0,10.95,1.29,15.77,3.56C2967.93,3076.79,2956.22,3069.73,2942.93,3069.73z"/>
			</g>
			<g>
				<path class="st7" d="M2533.05,3048.64H1466.27c-48.41,0-87.66-39.25-87.66-87.66v-4.47h1242.1v4.47
					C2620.71,3009.39,2581.47,3048.64,2533.05,3048.64z"/>
			</g>
			<g class="st2">
				<path class="st1" d="M2620.73,2956.5v4.47c0,48.4-39.28,87.68-87.68,87.68H1466.29c-48.44,0-87.68-39.28-87.68-87.68v-4.47h3.89
					c11.02,35.79,44.37,61.82,83.79,61.82h1066.76c39.39,0,72.77-26.04,83.79-61.82H2620.73z"/>
			</g>
			<g>
				<path class="st1" d="M2533.05,3063.18H1466.27c-56.36,0-102.2-45.85-102.2-102.21v-19.02h1271.19v19.02
					C2635.26,3017.33,2589.41,3063.18,2533.05,3063.18z M1393.86,2971.05c4.92,35.57,35.52,63.04,72.42,63.04h1066.78
					c36.9,0,67.5-27.48,72.42-63.04H1393.86z"/>
			</g>
			<g class="st8">
				<path class="st0" d="M1434.6,2985.57h1165.34c1.49-4,2.67-8.16,3.46-12.46H1395.93c5.01,27.24,24.83,49.12,50.45,56.35
					c-9.34-7.41-16.86-17.16-21.66-28.42C1421.61,2993.76,1426.89,2985.57,1434.6,2985.57z"/>
			</g>
			<g>
				<path class="st9" d="M2429.02,3047.68h-858.04c-45.79,0-84.27-32.39-89.33-75.2l-72.63-614.49
					c-5.92-50.09,35.76-93.89,89.33-93.89h1003.31c53.57,0,95.25,43.81,89.33,93.89l-72.63,614.49
					C2513.29,3015.29,2474.81,3047.68,2429.02,3047.68z"/>
			</g>
			<g class="st8">
				<path class="st0" d="M2059.95,2722.68c0.17-0.07,0.34-0.14,0.51-0.21c5.28-2.2,10.2,3.54,7.21,8.43
					c-8.59,14.01-21.63,25.49-38.16,32.1c-37.38,14.93-80.77-1.05-99.44-36.71c-21.54-41.13-3.47-91.2,38.36-109.49
					c15.82-6.92,32.67-8.26,48.36-4.88c5.17,1.11,5.92,8.18,1.07,10.29l-0.16,0.07c-28.87,12.63-41.27,47.25-26.21,75.58
					C2004.45,2722.24,2034.37,2733.06,2059.95,2722.68z"/>
			</g>
			<g>
				<g>
					<path class="st1" d="M2443.08,2423.64c-0.29-8.03-0.45-16.16-3.21-23.96c-0.82-0.77-1.59-1.56-2.41-2.33
						c-2.41-0.48-4.8-1.22-7.26-1.46c-17.38-1.8-34.61-0.95-51.62,3.13c-22.18,5.33-41.76,15.37-57.34,32.33
						c-5.64,6.12-10.63,12.83-15.77,19.37c-1.38,1.78-2.52,2.6-4.93,1.91c-5.67-1.62-11.55-1.83-17.41-1.25
						c-15.69,1.64-28.83,8.77-40.57,18.87c-12.72,10.97-22.26,24.51-30.9,38.77c-3.68,6.04-1.03,11.77,5.99,13.01
						c4.43,0.74,8.85,1.46,13.28,2.2c10.6,1.75,21.17,3.47,31.75,5.22c0.03,0.32,0.08,0.48,0.05,0.64
						c-0.05,0.21-0.11,0.45-0.21,0.66c-3.39,6.04-1.62,10.89,3.52,14.92c0.56,0.45,1.06,1.01,1.56,1.51
						c2.78,2.7,5.62,5.43,8.56,8.24c-2.97,3.1-5.94,5.8-8.45,8.9c-1.27,1.56-2.28,3.71-2.54,5.72c-0.48,3.26,1.62,6.2,4.64,7.42
						c3.21,1.33,6.23,0.79,8.67-1.59c3.1-2.99,6.02-6.17,9.14-9.41c4,3.9,7.79,7.58,11.58,11.21c4.35,4.13,6.97,4.56,12.38,2.15
						c0.98-0.48,1.96-0.85,3.13-1.32c0.26,1.19,0.5,2.15,0.69,3.05c2.91,14.47,5.78,28.96,8.77,43.38c1.4,6.84,7.34,9.27,13.12,5.38
						c5.22-3.5,10.41-7.15,15.48-10.97c11.66-8.82,21.94-19.03,29.47-31.67c9.41-15.9,13.41-32.67,7.61-50.9
						c-0.24-0.72,0.19-2.07,0.77-2.54c5.11-4.5,10.41-8.8,15.53-13.33c11.55-10.28,20.22-22.68,26.31-36.86
						C2440.72,2464.77,2443.85,2444.52,2443.08,2423.64z M2268.93,2514.4c-12.24-2.04-24.94-4.16-37.97-6.33
						c10.78-15.58,22.58-29.55,40.12-37.34c7.58-3.37,16.75-4.56,22.47-3.18C2285.41,2483.08,2277.25,2498.61,2268.93,2514.4z
						 M2376.11,2559.58c-1.54,9.91-6.04,18.47-11.98,26.39c-7.39,9.75-16.54,17.57-26.58,24.96c-2.68-13.3-5.33-26.31-7.92-39.06
						c15.53-8.9,30.71-17.6,45.98-26.34C2376.91,2549.91,2376.86,2554.76,2376.11,2559.58z M2423.49,2460.66
						c-3.42,13.33-8.67,25.78-17.17,36.73c-6.57,8.4-14.39,15.53-22.76,22.07c-22.71,17.75-47.86,31.43-73.83,43.7
						c-1.27,0.58-2.09,0.64-3.15-0.45c-2.31-2.41-4.82-4.69-7.23-7.05c-0.16-0.13-0.24-0.37-0.5-0.82c0.61-0.66,1.27-1.32,1.93-2.01
						c13.73-14.26,27.53-28.49,41.26-42.77c3.97-4.08,3.29-9.96-1.38-12.72c-3.26-1.93-7.08-1.33-10.04,1.7
						c-8.27,8.53-16.51,17.07-24.75,25.62c-6.15,6.36-12.24,12.69-18.63,19.32c-2.97-2.86-5.8-5.46-8.43-8.24
						c-0.45-0.5-0.29-1.96,0.11-2.73c6.41-13.59,12.75-27.24,19.53-40.68c6.7-13.33,14.71-25.92,23.82-37.73
						c8.53-11.16,18.07-21.31,30.39-28.35c7.9-4.53,16.22-8.06,25.02-10.36c0.8-0.24,2.09,0.4,2.78,1.06
						c10.86,10.39,21.62,20.8,32.41,31.24c3.23,3.1,6.44,6.28,9.75,9.33C2423.6,2458.44,2423.84,2459.31,2423.49,2460.66z
						 M2426.41,2443.41c-10.76-10.41-21.25-20.54-31.77-30.71c-0.03-0.27,0-0.58,0-0.87c10.41-0.32,20.85-0.61,31.4-0.93
						C2427.52,2422.08,2427.42,2432.55,2426.41,2443.41z"/>
				</g>
				<g>
					<path class="st0" d="M2422.62,2457.51c-3.31-3.05-6.52-6.23-9.75-9.33c-10.79-10.44-21.54-20.85-32.41-31.24
						c-0.69-0.66-1.99-1.3-2.78-1.06c-8.8,2.31-17.12,5.83-25.02,10.36c-12.32,7.05-21.86,17.2-30.39,28.35
						c-9.12,11.82-17.12,24.41-23.82,37.73c-6.78,13.44-13.12,27.08-19.53,40.68c-0.4,0.77-0.56,2.23-0.11,2.73
						c2.62,2.78,5.46,5.38,8.43,8.24c6.39-6.62,12.48-12.96,18.63-19.32c8.24-8.56,16.48-17.09,24.75-25.62
						c2.97-3.02,6.78-3.63,10.04-1.7c4.66,2.76,5.35,8.64,1.38,12.72c-13.73,14.28-27.53,28.51-41.26,42.77
						c-0.66,0.69-1.32,1.35-1.93,2.01c0.26,0.45,0.34,0.69,0.5,0.82c2.41,2.36,4.93,4.64,7.23,7.05c1.06,1.09,1.88,1.03,3.15,0.45
						c25.97-12.27,51.12-25.94,73.83-43.7c8.37-6.55,16.19-13.67,22.76-22.07c8.51-10.94,13.75-23.4,17.17-36.73
						C2423.84,2459.31,2423.6,2458.44,2422.62,2457.51z M2398.08,2479.58c-10.52,10.73-27.64,11.08-38.32,0.72
						c-10.73-10.33-11-27.45-0.61-38.29c10.2-10.63,27.35-10.86,38.11-0.53C2407.91,2451.76,2408.31,2469.11,2398.08,2479.58z"/>
				</g>
				<g>
					<path class="st10" d="M2426.41,2443.4c-10.76-10.4-21.26-20.53-31.77-30.71c-0.01-0.28,0-0.57,0-0.87
						c10.42-0.3,20.86-0.6,31.42-0.93C2427.53,2422.07,2427.41,2432.54,2426.41,2443.4z"/>
				</g>
				<g>
					<path class="st10" d="M2293.55,2467.55c-8.15,15.51-16.31,31.05-24.62,46.86c-12.26-2.06-24.95-4.17-37.98-6.34
						c10.79-15.6,22.58-29.57,40.13-37.34C2278.65,2467.36,2287.81,2466.17,2293.55,2467.55z"/>
				</g>
				<g>
					<path class="st10" d="M2364.12,2585.98c-7.39,9.75-16.52,17.58-26.57,24.96c-2.68-13.29-5.32-26.3-7.92-39.06
						c15.53-8.9,30.71-17.58,45.99-26.35c1.3,4.38,1.23,9.22,0.5,14.07C2374.59,2569.5,2370.08,2578.06,2364.12,2585.98z"/>
				</g>
				<g>
					<path class="st1" d="M2397.26,2441.48c-10.76-10.33-27.9-10.1-38.11,0.53c-10.39,10.84-10.12,27.96,0.61,38.29
						c10.68,10.36,27.8,10.02,38.32-0.72C2408.31,2469.11,2407.91,2451.76,2397.26,2441.48z M2388.6,2470.92
						c-5.33,5.46-14.34,5.59-19.93,0.29c-5.78-5.46-5.83-14.76-0.13-20.48c5.33-5.41,14.52-5.46,19.95-0.11
						C2394.16,2456.18,2394.19,2465.19,2388.6,2470.92z"/>
				</g>
				<g>
					<path class="st11" d="M2388.59,2470.92c-5.33,5.46-14.34,5.59-19.94,0.28c-5.75-5.45-5.82-14.75-0.13-20.47
						c5.34-5.4,14.52-5.46,19.95-0.12C2394.15,2456.18,2394.2,2465.2,2388.59,2470.92z"/>
				</g>
			</g>
			<g class="st2">
				<path class="st1" d="M2476.87,2974.2l72.64-614.49c1.99-16.79-3.2-33.37-14.61-46.67c-12.91-15.07-32.03-23.88-52.76-24.6
					c0.01-0.04,0.03-0.1,0.04-0.14c-29.69,102.03-195.31,671.06-980.03,692.68c6.95,29.39,35.3,50.79,68.82,50.79h835.85
					C2442.88,3031.78,2473,3007.02,2476.87,2974.2z"/>
			</g>
			<g class="st8">
				<path class="st0" d="M1522.83,2984.54l-72.63-614.49c-2.1-17.79,3.37-35.32,15.41-49.37c14.11-16.46,35.23-25.9,57.95-25.9
					h1003.31c7.81,0,15.4,1.19,22.61,3.32c-1.49-2.23-3.09-4.41-4.88-6.5c-14.11-16.46-35.23-25.9-57.94-25.9H1483.35
					c-22.71,0-43.83,9.44-57.95,25.9c-12.04,14.05-17.52,31.58-15.41,49.37l72.63,614.49c3.23,27.32,23.66,49.27,50.71,57.28
					C1527.77,3004.41,1524.05,2994.87,1522.83,2984.54z"/>
			</g>
			<g>
				<path class="st1" d="M2429.02,3062.22h-858.04c-53.23,0-97.84-37.85-103.77-88.04l-72.63-614.49
					c-3.23-27.32,5.27-53.93,23.93-74.93c19.89-22.38,48.99-35.22,79.84-35.22h1003.31c30.85,0,59.95,12.84,79.84,35.22
					c18.66,21,27.16,47.61,23.93,74.93l-72.63,614.49C2526.86,3024.37,2482.25,3062.22,2429.02,3062.22z M1498.35,2278.64
					c-22.54,0-43.72,9.28-58.1,25.45c-13.06,14.7-19.02,33.23-16.78,52.18l72.63,614.49c4.2,35.56,36.39,62.37,74.88,62.37h858.04
					c38.49,0,70.68-26.81,74.88-62.37l72.63-614.49c2.24-18.95-3.72-37.49-16.78-52.18c-14.38-16.18-35.55-25.45-58.1-25.45H1498.35
					z"/>
			</g>
			<g class="st2">
				<path class="st1" d="M1087.16,3165.25h1855.76c29.98,0,54.28-25.1,54.28-56.06v0c0-30.96-24.3-56.06-54.28-56.06h-747.21
					c-29.53,16.65-250.91,119.81-1164.78,93.06L1087.16,3165.25z"/>
			</g>
			<g class="st12">
				<path class="st0" d="M1665.11,2660.31h-55.95c-20.08,0-36.36-16.28-36.36-36.36V2439.2c0-20.08,16.28-36.36,36.36-36.36h55.95
					c20.08,0,36.36,16.28,36.36,36.36v184.75C1701.47,2644.03,1685.19,2660.31,1665.11,2660.31z"/>
			</g>
			<g>
				<path class="st1" d="M2069.95,2712.68c0.17-0.07,0.34-0.14,0.51-0.21c5.28-2.2,10.2,3.54,7.21,8.43
					c-8.59,14.01-21.63,25.49-38.16,32.1c-37.38,14.93-80.77-1.05-99.44-36.71c-21.54-41.13-3.47-91.2,38.36-109.49
					c15.82-6.92,32.67-8.26,48.36-4.88c5.17,1.11,5.92,8.18,1.07,10.29l-0.16,0.07c-28.87,12.63-41.27,47.25-26.21,75.58
					C2014.45,2712.24,2044.37,2723.06,2069.95,2712.68z"/>
			</g>
			<g>
				<g>
					<g>
						<path class="st5" d="M2859.76,1553.41c-3.88,0-7.72-1.5-10.61-4.39c-4.82-4.82-5.79-12.28-2.35-18.17l42.55-72.88
							c9.75-16.7,7.69-37.47-5.13-51.67c-42.45-47.03-66.11-107.8-66.6-171.14c-1.1-141.03,112.66-257.98,253.59-260.7
							c1.71-0.03,3.4-0.05,5.1-0.05c69.87,0,135.35,27.43,184.37,77.23c49.01,49.79,75.4,115.73,74.29,185.65
							c-2.22,140.33-118.28,254.5-258.68,254.5c-0.01,0-2.23-0.01-2.23-0.01c-21.97-0.19-43.8-3.15-64.88-8.81
							c-3.51-0.94-7.15-1.42-10.8-1.42c-7.52,0-14.96,2.02-21.52,5.85l-109.53,63.95
							C2864.96,1552.74,2862.36,1553.41,2859.76,1553.41z"/>
					</g>
					<g>
						<g>
							<path class="st1" d="M3076.31,989.42c135.9,0,245.82,111.25,243.66,247.65c-2.1,132.45-111.46,239.74-243.69,239.74
								c-0.7,0-1.4,0-2.1-0.01c-21.13-0.18-41.61-3.06-61.12-8.3c-4.83-1.3-9.77-1.93-14.69-1.93c-10.13,0-20.18,2.7-29.08,7.9
								l-109.53,63.95l42.55-72.88c12.94-22.16,10.24-50.23-6.96-69.28c-38.58-42.74-62.25-99.2-62.73-161.2
								c-1.03-132.76,106.14-243.02,238.88-245.58C3073.11,989.43,3074.71,989.42,3076.31,989.42 M3076.31,959.42
								c-1.79,0-3.58,0.02-5.38,0.05c-149.1,2.87-269.46,126.6-268.3,275.81c0.52,67.01,25.55,131.31,70.46,181.07
								c8.43,9.33,9.76,23.02,3.32,34.06l-42.55,72.88c-6.87,11.77-4.94,26.7,4.69,36.34c5.78,5.78,13.46,8.79,21.22,8.79
								c5.18,0,10.4-1.34,15.12-4.09l109.53-63.95c4.27-2.49,9.09-3.81,13.96-3.81c2.34,0,4.66,0.31,6.91,0.91
								c22.31,5.99,45.41,9.13,68.65,9.33l2.36,0.01c148.56,0,271.33-120.79,273.68-269.27c1.17-73.98-26.74-143.73-78.6-196.41
								C3219.5,988.44,3150.23,959.42,3076.31,959.42L3076.31,959.42z"/>
						</g>
					</g>
				</g>
				<g class="st13">
					<path class="st14" d="M3319.69,1221.77c-0.12-2.68-0.29-5.34-0.49-7.99c-0.11-1.36-0.22-2.72-0.35-4.07
						c-0.26-2.68-0.57-5.35-0.91-8.01c-0.15-1.15-0.27-2.31-0.43-3.46c-0.51-3.53-1.09-7.04-1.75-10.52
						c-0.29-1.52-0.62-3.02-0.94-4.52c-0.43-2.06-0.87-4.12-1.35-6.17c-0.43-1.8-0.88-3.6-1.34-5.39c-0.43-1.67-0.89-3.33-1.36-4.98
						c-0.55-1.94-1.1-3.89-1.69-5.81c-0.36-1.15-0.76-2.29-1.13-3.43c-1.46-4.47-3.04-8.89-4.75-13.25
						c-0.24-0.62-0.47-1.25-0.72-1.86c-0.97-2.41-1.99-4.8-3.04-7.17c-0.32-0.72-0.63-1.44-0.96-2.15
						c-1.12-2.48-2.27-4.94-3.47-7.37c-0.09-0.19-0.19-0.38-0.29-0.56c-5.48-11.04-11.76-21.6-18.78-31.62
						c11.96,29.44,18.36,61.73,17.82,95.58c-1.8,113.77-82.77,208.91-189.36,233.5c-113.01,25.03-178.79,3.89-218.81-35.58
						c-0.2-0.23-16.25-38.51-16.45-38.74c-6.69-7.41-12.9-15.27-18.66-23.46c0,0,0,0.01,0.01,0.01c0.91,2.24,1.87,4.46,2.85,6.66
						c-0.02-0.02-0.03-0.04-0.05-0.06c10.55,23.89,24.8,45.77,42.06,64.9c17.2,19.05,19.9,47.12,6.95,69.29l-42.55,72.87
						l109.53-63.95c13.22-7.72,28.98-9.93,43.77-5.97c19.52,5.24,40,8.12,61.12,8.3c3.83,0.03,7.64-0.05,11.43-0.19
						c3.52-0.14,7.02-0.38,10.5-0.66c0.52-0.04,1.05-0.06,1.58-0.11c3.2-0.28,6.36-0.67,9.53-1.07c0.8-0.1,1.6-0.17,2.4-0.29
						c2.97-0.41,5.91-0.92,8.85-1.44c0.97-0.17,1.94-0.31,2.9-0.49c2.8-0.53,5.57-1.15,8.33-1.77c1.08-0.24,2.16-0.46,3.24-0.72
						c2.66-0.64,5.29-1.36,7.91-2.09c1.15-0.32,2.32-0.62,3.46-0.95c2.54-0.74,5.04-1.56,7.54-2.39c1.2-0.4,2.42-0.77,3.61-1.19
						c2.42-0.84,4.82-1.75,7.21-2.66c1.24-0.48,2.49-0.94,3.72-1.43c2.32-0.93,4.61-1.92,6.89-2.92c1.27-0.56,2.54-1.1,3.8-1.68
						c2.21-1.02,4.4-2.08,6.57-3.16c1.29-0.64,2.58-1.27,3.85-1.93c2.11-1.09,4.2-2.24,6.28-3.39c1.29-0.72,2.59-1.43,3.86-2.17
						c2.02-1.17,4.01-2.38,6-3.61c1.29-0.8,2.59-1.6,3.86-2.42c1.92-1.24,3.82-2.51,5.71-3.8c1.29-0.88,2.58-1.77,3.85-2.68
						c1.83-1.3,3.63-2.64,5.42-3.99c1.28-0.96,2.55-1.93,3.81-2.92c1.73-1.36,3.45-2.75,5.15-4.16c1.26-1.05,2.52-2.1,3.76-3.18
						c1.64-1.42,3.26-2.85,4.86-4.31c1.24-1.13,2.46-2.27,3.68-3.42c1.55-1.47,3.08-2.96,4.59-4.47c1.21-1.21,2.4-2.43,3.58-3.66
						c1.46-1.52,2.9-3.05,4.31-4.6c1.17-1.29,2.33-2.59,3.48-3.91c1.36-1.56,2.72-3.13,4.04-4.73c1.13-1.36,2.24-2.75,3.35-4.14
						c1.27-1.6,2.53-3.2,3.77-4.84c1.09-1.45,2.16-2.92,3.22-4.39c1.18-1.63,2.35-3.27,3.49-4.93c1.04-1.52,2.05-3.07,3.06-4.62
						c1.08-1.66,2.17-3.33,3.21-5.02c0.99-1.6,1.94-3.23,2.89-4.86c0.99-1.69,1.98-3.38,2.93-5.09c0.93-1.68,1.82-3.39,2.71-5.09
						c0.9-1.71,1.8-3.42,2.65-5.15c0.87-1.76,1.69-3.54,2.51-5.32c0.8-1.73,1.62-3.45,2.38-5.2c0.8-1.83,1.54-3.69,2.29-5.54
						c0.71-1.75,1.44-3.48,2.1-5.25c0.72-1.9,1.38-3.84,2.06-5.76c0.62-1.76,1.25-3.5,1.83-5.28c0.64-1.98,1.22-3.99,1.81-6
						c0.52-1.76,1.07-3.51,1.55-5.28c0.56-2.07,1.05-4.17,1.56-6.27c0.42-1.74,0.88-3.47,1.26-5.23c0.48-2.18,0.87-4.4,1.29-6.6
						c0.32-1.7,0.69-3.39,0.97-5.1c0.39-2.33,0.69-4.69,1.01-7.04c0.22-1.62,0.49-3.23,0.68-4.86c0.31-2.64,0.52-5.31,0.74-7.97
						c0.11-1.37,0.28-2.72,0.37-4.09c0.27-4.05,0.44-8.13,0.51-12.23c0.06-3.9,0-7.78-0.12-11.64
						C3319.81,1224.2,3319.75,1222.98,3319.69,1221.77z"/>
				</g>
				<g class="st6">
					<g>
						<path class="st0" d="M3191.17,1162.22c-26.73-26.74-71.39-25.99-101.75,0.84c-13.62-12.03-30.55-19.25-48.21-20.46
							c-20.46-1.39-39.49,5.57-53.55,19.62c-29.11,29.11-29.11,76.49,0,105.6l82.15,82.16c5.24,5.24,12.2,8.12,19.61,8.12
							c7.41,0,14.37-2.89,19.61-8.12l82.15-82.15C3220.28,1238.71,3220.28,1191.33,3191.17,1162.22z"/>
					</g>
				</g>
				<g class="st6">
					<g>
						<path class="st0" d="M2845.73,1252.52c-1.03-132.76,106.14-243.02,238.88-245.58c77.64-1.5,147.2,33.33,192.84,88.63
							c-44.75-65.31-120.43-107.75-205.95-106.1c-132.74,2.56-239.91,112.82-238.88,245.58c0.45,57.95,21.17,111.06,55.38,152.65
							C2861.67,1349.13,2846.12,1302.64,2845.73,1252.52z"/>
					</g>
				</g>
				<g>
					<path class="st0" d="M2982.27,1156.84L2982.27,1156.84c24.9-24.9,65.26-20.44,90.16,4.46l3.88,3.88l3.88-3.88
						c24.9-24.9,65.26-29.36,90.16-4.46v0c24.9,24.9,24.9,65.26,0,90.16l-3.88,3.88l-78.28,78.28c-6.56,6.56-17.21,6.56-23.77,0
						l-78.28-78.28l-3.87-3.87C2957.37,1222.1,2957.37,1181.73,2982.27,1156.84z"/>
					<path class="st1" d="M3076.31,1344.06c-6.87,0-13.73-2.61-18.96-7.83l-82.15-82.15c-13.93-13.93-21.6-32.45-21.6-52.15
						s7.67-38.22,21.6-52.15l0,0l0,0c26.57-26.57,71.08-25.63,101.11,1.43c30.03-27.06,74.54-28,101.11-1.43
						c28.75,28.75,28.75,75.54,0,104.3l-82.15,82.15C3090.04,1341.44,3083.17,1344.06,3076.31,1344.06z M3023.26,1150.33
						c-12.64,0-24.81,4.48-33.92,13.58l0,0c-10.15,10.15-15.74,23.65-15.74,38.01s5.59,27.86,15.74,38.01l82.15,82.15
						c2.66,2.65,6.97,2.65,9.63,0l82.15-82.15c20.95-20.96,20.95-55.06,0-76.02c-19.74-19.73-53.84-17.73-76.02,4.46l-3.87,3.87
						c-3.9,3.91-10.24,3.91-14.14,0l-3.87-3.87C3053.41,1156.42,3038.01,1150.33,3023.26,1150.33z M2982.27,1156.84h0.05H2982.27z"
						/>
				</g>
			</g>
		</g>
		<g class="st15">
			<path class="st1" d="M3300,3209.77c0,50.67-585.4,91.77-1307.5,91.77S685,3260.43,685,3209.77c0-14.23,46.29-27.75,128.94-39.77
				h2357.12C3253.71,3182.01,3300,3195.54,3300,3209.77z"/>
		</g>
		<g>
			<g>
				<path class="st16" d="M1232.02,2212.18l-35.17,5.43c-7.05,1.09-12.58,6.62-13.67,13.67l-5.43,35.17l-5.43-35.17
					c-1.09-7.05-6.62-12.58-13.67-13.67l-35.17-5.43l35.17-5.43c7.05-1.09,12.58-6.62,13.67-13.67l5.43-35.17l5.43,35.17
					c1.09,7.05,6.62,12.58,13.67,13.67L1232.02,2212.18z"/>
			</g>
			<g>
				<path class="st16" d="M1092.41,2444.08l-33,5.1c-6.61,1.02-11.8,6.21-12.82,12.82l-5.1,33l-5.1-33
					c-1.02-6.61-6.21-11.8-12.82-12.82l-33-5.1l33-5.1c6.61-1.02,11.8-6.21,12.82-12.82l5.1-33l5.1,33
					c1.02,6.61,6.21,11.8,12.82,12.82L1092.41,2444.08z"/>
			</g>
			<g>
				<path class="st16" d="M980.87,2041.64l-24.61,3.8c-4.93,0.76-8.8,4.63-9.56,9.56l-3.8,24.61l-3.8-24.61
					c-0.76-4.93-4.63-8.8-9.56-9.56l-24.61-3.8l24.61-3.8c4.93-0.76,8.8-4.63,9.56-9.56l3.8-24.61l3.8,24.61
					c0.76,4.93,4.63,8.8,9.56,9.56L980.87,2041.64z"/>
			</g>
			<g>
				<path class="st16" d="M3059.59,2120.86l36.14,5.58c7.24,1.12,12.92,6.8,14.04,14.04l5.58,36.14l5.58-36.14
					c1.12-7.24,6.8-12.92,14.04-14.04l36.14-5.58l-36.14-5.58c-7.24-1.12-12.92-6.8-14.04-14.04l-5.58-36.14l-5.58,36.14
					c-1.12,7.24-6.8,12.92-14.04,14.04L3059.59,2120.86z"/>
			</g>
			<g>
				<path class="st16" d="M2842.2,2353.37l33.91,5.24c6.79,1.05,12.12,6.38,13.17,13.17l5.24,33.91l5.24-33.91
					c1.05-6.79,6.38-12.12,13.17-13.17l33.91-5.24l-33.91-5.24c-6.79-1.05-12.12-6.38-13.17-13.17l-5.24-33.9l-5.24,33.9
					c-1.05,6.79-6.38,12.12-13.17,13.17L2842.2,2353.37z"/>
			</g>
			<g>
				<path class="st16" d="M2919.73,1924.01l25.28,3.9c5.07,0.78,9.04,4.76,9.82,9.82l3.9,25.28l3.9-25.29
					c0.78-5.07,4.76-9.04,9.82-9.82l25.28-3.9l-25.28-3.9c-5.07-0.78-9.04-4.76-9.82-9.82l-3.9-25.28l-3.9,25.28
					c-0.78,5.07-4.76,9.04-9.82,9.82L2919.73,1924.01z"/>
			</g>
			<g>
				<path class="st16" d="M1366.23,1234.52l-27.55,4.25c-5.52,0.85-9.85,5.18-10.7,10.71l-4.25,27.55l-4.25-27.55
					c-0.85-5.52-5.18-9.85-10.7-10.71l-27.55-4.25l27.55-4.25c5.52-0.85,9.85-5.18,10.7-10.7l4.25-27.55l4.25,27.55
					c0.85,5.52,5.18,9.85,10.7,10.7L1366.23,1234.52z"/>
			</g>
			<g>
				<path class="st16" d="M1169.92,1456.26l-28.6,4.42c-5.73,0.88-10.23,5.38-11.11,11.11l-4.42,28.6l-4.42-28.6
					c-0.88-5.73-5.38-10.23-11.11-11.11l-28.6-4.42l28.6-4.42c5.73-0.88,10.23-5.38,11.11-11.11l4.42-28.6l4.42,28.6
					c0.88,5.73,5.38,10.23,11.11,11.11L1169.92,1456.26z"/>
			</g>
			<g>
				<path class="st16" d="M2461.67,1064.52l27.55,4.25c5.52,0.85,9.85,5.18,10.7,10.71l4.25,27.55l4.25-27.55
					c0.85-5.52,5.18-9.85,10.71-10.71l27.55-4.25l-27.55-4.25c-5.52-0.85-9.85-5.18-10.71-10.7l-4.25-27.55l-4.25,27.55
					c-0.85,5.52-5.18,9.85-10.7,10.7L2461.67,1064.52z"/>
			</g>
		</g>
	</g>
</g>
</svg>
